<?xml version="1.0" encoding="UTF-8"?>
<svg width="700pt" height="700pt" version="1.1" viewBox="0 0 700 700" xmlns="http://www.w3.org/2000/svg">
 <path d="m140 17.5c-11.668 0-11.668 17.5 0 17.5h43.746c11.668 0 11.668-17.5 0-17.5zm201.27 8.7148v44.012c-14.793 0.61719-29.445 2.8008-43.781 6.5117-4.6523-4.1914-10.754-6.7227-17.535-6.7227-4.0312 0-7.793 0.98047-11.191 2.5977l-17.535-17.586c-1.6523-1.6289-3.8672-2.5273-6.1875-2.5117-11.691 0-14.609-0.015625-26.301-0.015625-4.8477 0-8.75 3.9023-8.75 8.75s3.9023 8.75 8.75 8.75c10.477 0.011719 12.184 0.015625 22.676 0.015625l14.867 14.918c-1.2539 2.6055-2.043 5.4375-2.375 8.4258-68.059 35.016-111.74 104.33-113.76 181.08-1.9453 73.961 35.141 143.19 97.016 182.62-0.57031 2.1484-0.88672 4.3281-0.88672 6.6484 0 4.0391 0.97656 7.9453 2.6133 11.383l-15.039 14.887-22.605 0.003906c-11.668 0-11.668 17.516 0 17.516h26.23c2.3281-0.003906 4.5469-0.92969 6.1875-2.582l17.617-17.5c3.4102 1.6328 7.1562 2.582 11.211 2.582 8.7344 0 16.469-4.2305 21.242-10.73 18.625 6.2109 37.918 9.6875 57.539 10.512v9.0078c0.015624 4.8359 3.9492 8.7344 8.7852 8.7148 16.953 0 33.84-2.0117 50.359-5.7578l2.3398 8.7344c1.2461 4.6758 6.0586 7.4414 10.73 6.1875 59.914-16.055 111.37-54.25 144.18-106.64l7.7227 4.4609c4.1914 2.4102 9.5391 0.96094 11.945-3.2305 46.883-81.207 46.883-181.29 0-262.5-23.441-40.617-56.855-73.406-96.105-96.062v-26.477c-0.019531-4.832-3.9531-8.7344-8.7852-8.7148h-69.945c-2.9688-0.011718-5.7422 1.4805-7.3672 3.9648-14.75-2.5703-29.812-3.9648-45.082-3.9648-4.832-0.019531-8.7656 3.8828-8.7852 8.7148zm17.5 8.9219c11.773 0.42578 23.496 1.7578 34.945 3.8281v66.035h-34.945zm-262.52 17.363c-11.668 0-11.668 17.5 0 17.5h87.492c11.668 0 11.668-17.5 0-17.5zm384.98 20.547c32.867 20.828 60.871 49.547 81 84.418 42.273 73.227 43.625 163 4.2383 237.34-32.875-18.965-65.758-37.918-98.637-56.875 8.6641-17.598 13.465-37.352 13.434-57.934zm-384.98 14.453c-11.668 0-11.668 17.5 0 17.5h87.496c11.668 0 11.668-17.5 0-17.5zm245.02 17.5h-8.8008c-4.8359 0.015625-8.7344 3.9492-8.7148 8.7852v43.68h-61.281c-4.8398 0.019531-8.7422 3.9609-8.7148 8.8008v24.711c-38.918 42.082-46.223 104.86-17.312 154.79 22.34 38.578 62.117 62.285 104.82 65.164v61.164c-17.941-0.8125-35.496-3.8711-52.516-9.6055-0.82031-14.418-12.211-25-26.266-25-5.7891 0-11.074 1.9336-15.398 5.0938-57.023-36.098-91.23-99.598-89.445-167.62 1.8125-68.945 40.34-131.33 100.57-164.05 4.6914 6.9766 12.629 11.621 21.738 11.621 14.598 0 26.281-11.906 26.281-26.301 0-1.207-0.097656-2.4219-0.25781-3.5898 11.617-2.7344 23.359-4.3984 35.289-4.9375zm0 17.5h52.445v148.75h-52.445zm-87.512 97.055v51.66h-17.055c1.4219-18.148 7.1562-35.91 17.055-51.664zm209.66 69.16c-3.6445 47.797-36.953 88.555-83.855 101.16-49.734 13.359-102.14-8.3281-127.95-52.895-8.7773-15.156-13.656-31.652-14.918-48.262 75.594 0.03125 151.14 0 226.72 0zm79.141 112.48c-28.887 45.719-73.535 80.004-125.18 96.062l-24.988-93c27.773-9.4727 51-27.785 66.699-51.188zm-411.32 53.801c-11.668 0-11.668 17.5 0 17.5h35c11.668 0 11.668-17.5 0-17.5zm-35 35c-11.668 0-11.668 17.5 0 17.5h69.996c11.668 0 11.668-17.5 0-17.5zm0 35c-11.668 0-11.668 17.5 0 17.5h69.996c11.668 0 11.668-17.5 0-17.5z"/>
</svg>
