<?xml version="1.0" encoding="UTF-8"?>
<svg width="700pt" height="700pt" version="1.1" viewBox="0 0 700 700" xmlns="http://www.w3.org/2000/svg">
 <g>
  <path d="m397.05 85.531c-22.855-0.60938-44.668 9.5508-58.906 27.438s-19.25 41.422-13.531 63.559c5.7188 22.137 21.5 40.301 42.621 49.055 21.117 8.7539 45.121 7.0781 64.824-4.5234l11.449 11.453 4.8984-4.8984 66.391 66.391 16.594-16.594-66.391-66.371 4.8984-4.8984-11.598-11.602v-0.003906c12.75-22.234 12.871-49.539 0.3125-71.887-12.559-22.348-35.941-36.445-61.562-37.117zm-3.7852 4.75h-0.003906c16.598-0.44922 32.785 5.1797 45.52 15.836 12.734 10.652 21.137 25.59 23.621 42.004 2.4883 16.418-1.1094 33.176-10.117 47.121l10.898 10.895-4.9023 4.8984 66.375 66.371-9.8555 9.875-66.391-66.391-4.8984 4.8984-10.766-10.766-0.003906 0.003906c-17.805 11.816-40.125 14.582-60.277 7.4727s-35.797-23.273-42.242-43.645c-6.4492-20.375-2.9531-42.594 9.4375-60.004 12.391-17.41 32.242-27.988 53.602-28.57z"/>
  <path d="m414.94 439.45v17.059h-4.9102v-17.059h-64.547v17.059h-4.9062v-17.059h-64.555v17.059h-4.9062v-17.059h-64.551v17.059h-4.9102v-17.059h-60.16v30.824c0 2.332-1.8906 4.2227-4.2227 4.2227-2.3359 0-4.2266-1.8906-4.2266-4.2227v-30.824h-35.496c-2.3359 0-4.2266-1.8906-4.2266-4.2266 0-2.332 1.8906-4.2227 4.2266-4.2227h35.496v-282.49h-15.312l19.539-41.789 19.535 41.789h-15.312v282.49h60.16v-14.875h4.9102v14.875h64.551v-14.875h4.9062v14.875h64.555v-14.875h4.9062v14.875h64.551v-14.875h4.9102v14.875h149.93v-15.312l41.789 19.539-41.789 19.539v-15.312z"/>
  <path d="m204.69 294.84v100.47h26.133v-100.47zm4.75 4.75h16.633v90.965h-16.629z"/>
  <path d="m265.18 255.41v139.89h26.133v-139.89zm4.75 4.75h16.629v130.39h-16.629z"/>
  <path d="m325.67 324.64v70.66h26.133v-70.66zm4.75 4.75h16.629v61.156h-16.629z"/>
  <path d="m386.16 271.08v124.23h26.133v-124.23zm4.75 4.75h16.629v114.72h-16.629z"/>
  <path d="m385.6 169.65c0 2.2148 1.1953 4.2617 3.125 5.3516 1.9297 1.0898 4.2969 1.0586 6.1953-0.085937 1.8984-1.1406 3.0352-3.2188 2.9766-5.4336-0.058594-2.2148-1.3086-4.2266-3.2656-5.2656l-11.273-5.9766c-4.582-2.4297-8.0469-6.5352-9.6719-11.461-1.625-4.9219-1.2812-10.285 0.95312-14.961 2.2383-4.6797 6.1992-8.3125 11.051-10.137v-8.7773h14.16v8.7773c3.8242 1.4375 7.1172 4.0117 9.4414 7.3711 2.3242 3.3594 3.5703 7.3477 3.5703 11.434h-13.941c0-2.25-1.2305-4.3242-3.207-5.3984-1.9766-1.0781-4.3867-0.98828-6.2773 0.23047s-2.9648 3.375-2.8008 5.6211c0.16797 2.2461 1.5469 4.2188 3.5977 5.1484l10.949 5.8164c4.4648 2.3711 7.8711 6.3398 9.543 11.113 1.668 4.7734 1.4766 10-0.53906 14.641-2.0156 4.6367-5.707 8.3438-10.332 10.383v9.1914h-14.16v-8.4258c-4.0703-1.2891-7.625-3.8398-10.148-7.2852-2.5195-3.4453-3.8789-7.6016-3.8789-11.871z"/>
 </g>
</svg>
